<svg width="32" height="32" viewBox="0 0 32 32" fill="none" xmlns="http://www.w3.org/2000/svg">
<path d="M16.93 4.66667H15.0708C14.118 4.66667 13.6416 4.66667 13.2143 4.816C12.9534 4.90719 12.7083 5.03839 12.4877 5.20489C12.1264 5.47755 11.8622 5.87392 11.3337 6.66667C11.063 7.07269 10.664 7.67116 10.505 7.83828C10.1109 8.25236 9.59426 8.52888 9.03114 8.62705C8.80387 8.66667 8.55989 8.66667 8.07191 8.66667C6.76514 8.66667 6.11177 8.66667 5.57751 8.81789C4.24107 9.19621 3.19654 10.2407 2.81822 11.5772C2.66699 12.1114 2.66699 12.7648 2.66699 14.0716V19.3333C2.66699 23.1045 2.66699 24.9901 3.83857 26.1617C5.01014 27.3333 6.89577 27.3333 10.667 27.3333H21.3337C25.1049 27.3333 26.9905 27.3333 28.1621 26.1617C29.3337 24.9901 29.3337 23.1045 29.3337 19.3333V14.0716C29.3337 12.7648 29.3337 12.1114 29.1825 11.5772C28.8041 10.2407 27.7596 9.19621 26.4232 8.81789C25.8889 8.66667 25.2356 8.66667 23.9288 8.66667C23.4408 8.66667 23.1968 8.66667 22.9696 8.62705C22.4064 8.52888 21.8897 8.25236 21.4957 7.83828C21.3366 7.67115 20.9377 7.07268 20.667 6.66667C20.1385 5.87392 19.8742 5.47755 19.513 5.20489C19.2924 5.03839 19.0473 4.90719 18.7864 4.816C18.3592 4.66667 17.8828 4.66667 16.93 4.66667Z" stroke="url(#paint0_linear_1_532)" stroke-width="2" stroke-linecap="round" stroke-linejoin="round"/>
<path d="M21.3337 17.3333C21.3337 20.2788 18.9458 22.6667 16.0004 22.6667C13.0548 22.6667 10.667 20.2788 10.667 17.3333C10.667 14.3879 13.0548 12 16.0004 12C18.9458 12 21.3337 14.3879 21.3337 17.3333Z" stroke="url(#paint1_linear_1_532)" stroke-width="2" stroke-linecap="round" stroke-linejoin="round"/>
<path d="M25.334 12.6667V12.6801" stroke="url(#paint2_linear_1_532)" stroke-width="2.33" stroke-linecap="round" stroke-linejoin="round"/>
<defs>
<linearGradient id="paint0_linear_1_532" x1="2.66699" y1="16" x2="29.3337" y2="16" gradientUnits="userSpaceOnUse">
<stop stop-color="#38BDF8"/>
<stop offset="1" stop-color="#1E90FF"/>
</linearGradient>
<linearGradient id="paint1_linear_1_532" x1="10.667" y1="17.3333" x2="21.3337" y2="17.3333" gradientUnits="userSpaceOnUse">
<stop stop-color="#38BDF8"/>
<stop offset="1" stop-color="#1E90FF"/>
</linearGradient>
<linearGradient id="paint2_linear_1_532" x1="25.334" y1="12.6734" x2="26.334" y2="12.6734" gradientUnits="userSpaceOnUse">
<stop stop-color="#38BDF8"/>
<stop offset="1" stop-color="#1E90FF"/>
</linearGradient>
</defs>
</svg>
