<svg width="24" height="24" viewBox="0 0 24 24" fill="none" xmlns="http://www.w3.org/2000/svg">
<path d="M9.39616 4.5H8.35449C5.40821 4.5 3.93507 4.5 3.01978 5.37868C2.10449 6.25736 2.10449 7.67157 2.10449 10.5V14.5C2.10449 17.3284 2.10449 18.7426 3.01978 19.6213C3.93507 20.5 5.40821 20.5 8.35449 20.5H12.5611C15.5074 20.5 16.9805 20.5 17.8958 19.6213C18.4888 19.052 18.6976 18.2579 18.7711 17" stroke="#141B34" stroke-width="1.5" stroke-linecap="round" stroke-linejoin="round"/>
<path d="M16.1667 7V3.85355C16.1667 3.65829 16.3316 3.5 16.535 3.5C16.6326 3.5 16.7263 3.53725 16.7954 3.60355L21.5275 8.14645C21.7634 8.37282 21.8958 8.67986 21.8958 9C21.8958 9.32014 21.7634 9.62718 21.5275 9.85355L16.7954 14.3964C16.7263 14.4628 16.6326 14.5 16.535 14.5C16.3316 14.5 16.1667 14.3417 16.1667 14.1464V11H13.1157C8.875 11 7.3125 14.5 7.3125 14.5V12C7.3125 9.23858 9.64435 7 12.5208 7H16.1667Z" stroke="#141B34" stroke-width="1.5" stroke-linecap="round" stroke-linejoin="round"/>
</svg>
