<svg width="40" height="40" viewBox="0 0 40 40" fill="none" xmlns="http://www.w3.org/2000/svg">
<path d="M13.334 26.6667L27.8675 25.4555C32.415 25.0767 33.4358 24.0833 33.9398 19.5482L35.0007 10" stroke="#141B34" stroke-width="2" stroke-linecap="round"/>
<path d="M10 10H36.6667" stroke="#141B34" stroke-width="2" stroke-linecap="round"/>
<path d="M9.99935 36.6667C11.8403 36.6667 13.3327 35.1743 13.3327 33.3333C13.3327 31.4924 11.8403 30 9.99935 30C8.1584 30 6.66602 31.4924 6.66602 33.3333C6.66602 35.1743 8.1584 36.6667 9.99935 36.6667Z" stroke="#141B34" stroke-width="2"/>
<path d="M28.3333 36.6667C30.1743 36.6667 31.6667 35.1743 31.6667 33.3333C31.6667 31.4924 30.1743 30 28.3333 30C26.4924 30 25 31.4924 25 33.3333C25 35.1743 26.4924 36.6667 28.3333 36.6667Z" stroke="#141B34" stroke-width="2"/>
<path d="M13.334 33.332H25.0007" stroke="#141B34" stroke-width="2" stroke-linecap="round"/>
<path d="M3.33398 3.33203H4.94398C6.51845 3.33203 7.89088 4.37301 8.27275 5.85691L13.2315 25.1262C13.4821 26.1 13.2677 27.1315 12.6477 27.9347L11.0542 29.9987" stroke="#141B34" stroke-width="2" stroke-linecap="round"/>
</svg>
