<svg width="40" height="40" viewBox="0 0 40 40" fill="none" xmlns="http://www.w3.org/2000/svg">
<path d="M8.33337 9.71265H12.8334M12.8334 9.71265H15.8334M12.8334 9.71265V8.33333M18.3334 9.71265H15.8334M15.8334 9.71265C15.3059 11.5989 14.2013 13.382 12.9405 14.9491M12.9405 14.9491C11.8965 16.2467 10.7454 17.3962 9.72622 18.3333M12.9405 14.9491C12.2977 14.1954 11.3977 12.976 11.1405 12.4242M12.9405 14.9491L14.8691 16.954" stroke="#141B34" stroke-width="2" stroke-linecap="round" stroke-linejoin="round"/>
<path d="M22.5 31.6667L23.8888 28.3333M23.8888 28.3333L26.6667 21.6667L29.4445 28.3333M23.8888 28.3333H29.4445M30.8333 31.6667L29.4445 28.3333" stroke="#141B34" stroke-width="2" stroke-linecap="round" stroke-linejoin="round"/>
<path d="M23.3334 16.6667V13.3333C23.3334 8.61928 23.3334 6.26227 21.8689 4.7978C20.4044 3.33333 18.0474 3.33333 13.3334 3.33333C8.61932 3.33333 6.26231 3.33333 4.79784 4.7978C3.33337 6.26227 3.33337 8.61928 3.33337 13.3333C3.33337 18.0473 3.33337 20.4043 4.79784 21.8688C6.26231 23.3333 8.61932 23.3333 13.3334 23.3333H16.6667" stroke="#141B34" stroke-width="2" stroke-linecap="round"/>
<path d="M16.6666 26.6667C16.6666 21.9527 16.6666 19.5957 18.1311 18.1312C19.5956 16.6667 21.9526 16.6667 26.6666 16.6667C31.3806 16.6667 33.7376 16.6667 35.2021 18.1312C36.6666 19.5957 36.6666 21.9527 36.6666 26.6667C36.6666 31.3807 36.6666 33.7377 35.2021 35.2022C33.7376 36.6667 31.3806 36.6667 26.6666 36.6667C21.9526 36.6667 19.5956 36.6667 18.1311 35.2022C16.6666 33.7377 16.6666 31.3807 16.6666 26.6667Z" stroke="#141B34" stroke-width="2"/>
<path d="M6.66663 27.5C6.66663 29.8408 6.66663 31.0112 7.22839 31.8518C7.47159 32.2158 7.78409 32.5283 8.14806 32.7715C8.98881 33.3333 10.1592 33.3333 12.5 33.3333" stroke="#141B34" stroke-width="2" stroke-linecap="round" stroke-linejoin="round"/>
<path d="M33.3333 12.5C33.3333 10.1592 33.3333 8.98885 32.7715 8.1481C32.5283 7.78414 32.2158 7.47163 31.8518 7.22843C31.0112 6.66667 29.8408 6.66667 27.5 6.66667" stroke="#141B34" stroke-width="2" stroke-linecap="round" stroke-linejoin="round"/>
</svg>
