<svg width="40" height="40" viewBox="0 0 40 40" fill="none" xmlns="http://www.w3.org/2000/svg">
<path d="M25.8327 17.5013C25.8327 14.2796 23.221 11.668 19.9993 11.668C16.7777 11.668 14.166 14.2796 14.166 17.5013C14.166 20.723 16.7777 23.3346 19.9993 23.3346C23.221 23.3346 25.8327 20.723 25.8327 17.5013Z" stroke="black" stroke-width="2" stroke-linecap="round" stroke-linejoin="round"/>
<path d="M36.6673 19.9987C36.6673 10.7939 29.2053 3.33203 20.0007 3.33203C10.7959 3.33203 3.33398 10.7939 3.33398 19.9987C3.33398 29.2034 10.7959 36.6654 20.0007 36.6654C29.2053 36.6654 36.6673 29.2034 36.6673 19.9987Z" stroke="black" stroke-width="2" stroke-linecap="round" stroke-linejoin="round"/>
<path d="M30 33.332C30 27.8092 25.5228 23.332 20 23.332C14.4771 23.332 10 27.8092 10 33.332" stroke="black" stroke-width="2" stroke-linecap="round" stroke-linejoin="round"/>
</svg>
